<mxfile host="app.diagrams.net" agent="Mozilla/5.0 (Macintosh; Intel Mac OS X 10_15_7) AppleWebKit/605.1.15 (KHTML, like Gecko) Version/18.4 Safari/605.1.15" version="27.0.6">
  <diagram name="Page-1" id="I2E-nRAWBNxLCdDhxRvt">
    <mxGraphModel dx="1868" dy="725" grid="0" gridSize="10" guides="1" tooltips="1" connect="0" arrows="0" fold="1" page="1" pageScale="1" pageWidth="850" pageHeight="1100" math="0" shadow="0">
      <root>
        <mxCell id="0" />
        <mxCell id="1" parent="0" />
        <mxCell id="R1J7WSBFCIJwRQoOznQ5-12" value="&lt;div style=&quot;font-size: 12px; text-align: left;&quot;&gt;actor&lt;/div&gt;" style="swimlane;childLayout=stackLayout;horizontal=1;startSize=50;horizontalStack=0;rounded=1;fontSize=14;fontStyle=0;strokeWidth=2;resizeParent=0;resizeLast=1;shadow=0;dashed=0;align=center;arcSize=4;whiteSpace=wrap;html=1;" vertex="1" parent="1">
          <mxGeometry x="-34" y="381" width="160" height="286" as="geometry" />
        </mxCell>
        <mxCell id="R1J7WSBFCIJwRQoOznQ5-13" value="&lt;div&gt;+ id (PK)&lt;br&gt;&lt;/div&gt;&lt;div&gt;+ name&lt;/div&gt;&lt;div&gt;+ element (FK)&lt;/div&gt;&lt;div&gt;+ health&lt;/div&gt;&lt;div&gt;+ attack_point&lt;/div&gt;&lt;div&gt;+ magic_point&lt;/div&gt;&lt;div&gt;+ attack_defence&lt;/div&gt;&lt;div&gt;+ magic_defence&lt;/div&gt;&lt;div&gt;+ equip_id (FK)&lt;/div&gt;&lt;div&gt;+ skill_id (FK)&lt;/div&gt;&lt;div&gt;+ level&lt;/div&gt;&lt;div&gt;&lt;br&gt;&lt;/div&gt;" style="align=left;strokeColor=none;fillColor=none;spacingLeft=4;spacingRight=4;fontSize=12;verticalAlign=top;resizable=0;rotatable=0;part=1;html=1;whiteSpace=wrap;" vertex="1" parent="R1J7WSBFCIJwRQoOznQ5-12">
          <mxGeometry y="50" width="160" height="236" as="geometry" />
        </mxCell>
        <mxCell id="R1J7WSBFCIJwRQoOznQ5-17" value="actor" style="whiteSpace=wrap;html=1;align=center;" vertex="1" parent="1">
          <mxGeometry x="440" y="336" width="100" height="39" as="geometry" />
        </mxCell>
        <mxCell id="R1J7WSBFCIJwRQoOznQ5-18" value="&lt;u&gt;id&lt;/u&gt;" style="ellipse;whiteSpace=wrap;html=1;align=center;" vertex="1" parent="1">
          <mxGeometry x="450" y="189" width="100" height="40" as="geometry" />
        </mxCell>
        <mxCell id="R1J7WSBFCIJwRQoOznQ5-20" value="magic_point" style="ellipse;whiteSpace=wrap;html=1;align=center;" vertex="1" parent="1">
          <mxGeometry x="196" y="300" width="100" height="40" as="geometry" />
        </mxCell>
        <mxCell id="R1J7WSBFCIJwRQoOznQ5-22" value="attack_point" style="ellipse;whiteSpace=wrap;html=1;align=center;" vertex="1" parent="1">
          <mxGeometry x="201" y="243" width="100" height="40" as="geometry" />
        </mxCell>
        <mxCell id="R1J7WSBFCIJwRQoOznQ5-23" value="health" style="ellipse;whiteSpace=wrap;html=1;align=center;" vertex="1" parent="1">
          <mxGeometry x="308" y="237" width="100" height="40" as="geometry" />
        </mxCell>
        <mxCell id="R1J7WSBFCIJwRQoOznQ5-33" value="skill_id" style="ellipse;whiteSpace=wrap;html=1;align=center;" vertex="1" parent="1">
          <mxGeometry x="274" y="527" width="94" height="40" as="geometry" />
        </mxCell>
        <mxCell id="R1J7WSBFCIJwRQoOznQ5-34" value="equ_id" style="ellipse;whiteSpace=wrap;html=1;align=center;" vertex="1" parent="1">
          <mxGeometry x="201" y="449" width="100" height="38" as="geometry" />
        </mxCell>
        <mxCell id="R1J7WSBFCIJwRQoOznQ5-35" value="attack_defence" style="ellipse;whiteSpace=wrap;html=1;align=center;" vertex="1" parent="1">
          <mxGeometry x="183" y="344" width="100" height="40" as="geometry" />
        </mxCell>
        <mxCell id="R1J7WSBFCIJwRQoOznQ5-39" value="&lt;span style=&quot;&quot;&gt;name&lt;/span&gt;" style="ellipse;whiteSpace=wrap;html=1;align=center;fontStyle=0;" vertex="1" parent="1">
          <mxGeometry x="332" y="184" width="100" height="40" as="geometry" />
        </mxCell>
        <mxCell id="R1J7WSBFCIJwRQoOznQ5-42" value="" style="endArrow=none;html=1;rounded=0;" edge="1" parent="1" source="R1J7WSBFCIJwRQoOznQ5-18" target="R1J7WSBFCIJwRQoOznQ5-17">
          <mxGeometry relative="1" as="geometry">
            <mxPoint x="345" y="453" as="sourcePoint" />
            <mxPoint x="505" y="453" as="targetPoint" />
          </mxGeometry>
        </mxCell>
        <mxCell id="R1J7WSBFCIJwRQoOznQ5-43" value="" style="endArrow=none;html=1;rounded=0;" edge="1" parent="1" source="R1J7WSBFCIJwRQoOznQ5-39" target="R1J7WSBFCIJwRQoOznQ5-17">
          <mxGeometry relative="1" as="geometry">
            <mxPoint x="345" y="453" as="sourcePoint" />
            <mxPoint x="505" y="453" as="targetPoint" />
          </mxGeometry>
        </mxCell>
        <mxCell id="R1J7WSBFCIJwRQoOznQ5-44" value="" style="endArrow=none;html=1;rounded=0;" edge="1" parent="1" source="R1J7WSBFCIJwRQoOznQ5-56" target="R1J7WSBFCIJwRQoOznQ5-17">
          <mxGeometry relative="1" as="geometry">
            <mxPoint x="553" y="264" as="sourcePoint" />
            <mxPoint x="511" y="343" as="targetPoint" />
          </mxGeometry>
        </mxCell>
        <mxCell id="R1J7WSBFCIJwRQoOznQ5-45" value="" style="endArrow=none;html=1;rounded=0;" edge="1" parent="1" source="R1J7WSBFCIJwRQoOznQ5-23" target="R1J7WSBFCIJwRQoOznQ5-17">
          <mxGeometry relative="1" as="geometry">
            <mxPoint x="395" y="401" as="sourcePoint" />
            <mxPoint x="447" y="483" as="targetPoint" />
          </mxGeometry>
        </mxCell>
        <mxCell id="R1J7WSBFCIJwRQoOznQ5-46" value="" style="endArrow=none;html=1;rounded=0;" edge="1" parent="1" source="R1J7WSBFCIJwRQoOznQ5-34" target="R1J7WSBFCIJwRQoOznQ5-17">
          <mxGeometry relative="1" as="geometry">
            <mxPoint x="378" y="413" as="sourcePoint" />
            <mxPoint x="448" y="599" as="targetPoint" />
          </mxGeometry>
        </mxCell>
        <mxCell id="R1J7WSBFCIJwRQoOznQ5-47" value="" style="endArrow=none;html=1;rounded=0;" edge="1" parent="1" source="R1J7WSBFCIJwRQoOznQ5-17" target="R1J7WSBFCIJwRQoOznQ5-35">
          <mxGeometry relative="1" as="geometry">
            <mxPoint x="482" y="415" as="sourcePoint" />
            <mxPoint x="283" y="364" as="targetPoint" />
          </mxGeometry>
        </mxCell>
        <mxCell id="R1J7WSBFCIJwRQoOznQ5-48" value="" style="endArrow=none;html=1;rounded=0;" edge="1" parent="1" source="R1J7WSBFCIJwRQoOznQ5-22" target="R1J7WSBFCIJwRQoOznQ5-17">
          <mxGeometry relative="1" as="geometry">
            <mxPoint x="424" y="430" as="sourcePoint" />
            <mxPoint x="439" y="402" as="targetPoint" />
          </mxGeometry>
        </mxCell>
        <mxCell id="R1J7WSBFCIJwRQoOznQ5-50" value="" style="endArrow=none;html=1;rounded=0;" edge="1" parent="1" source="R1J7WSBFCIJwRQoOznQ5-17" target="R1J7WSBFCIJwRQoOznQ5-20">
          <mxGeometry relative="1" as="geometry">
            <mxPoint x="399" y="389" as="sourcePoint" />
            <mxPoint x="304" y="335" as="targetPoint" />
          </mxGeometry>
        </mxCell>
        <mxCell id="R1J7WSBFCIJwRQoOznQ5-51" value="magic_defence" style="ellipse;whiteSpace=wrap;html=1;align=center;" vertex="1" parent="1">
          <mxGeometry x="179" y="393" width="100" height="40" as="geometry" />
        </mxCell>
        <mxCell id="R1J7WSBFCIJwRQoOznQ5-52" value="" style="endArrow=none;html=1;rounded=0;" edge="1" parent="1" source="R1J7WSBFCIJwRQoOznQ5-17" target="R1J7WSBFCIJwRQoOznQ5-51">
          <mxGeometry relative="1" as="geometry">
            <mxPoint x="754" y="452" as="sourcePoint" />
            <mxPoint x="565" y="529.5" as="targetPoint" />
          </mxGeometry>
        </mxCell>
        <mxCell id="R1J7WSBFCIJwRQoOznQ5-56" value="&lt;span style=&quot;border-bottom-width: 1px; border-bottom-style: dotted; border-bottom-color: currentcolor;&quot;&gt;element&lt;/span&gt;" style="ellipse;whiteSpace=wrap;html=1;align=center;" vertex="1" parent="1">
          <mxGeometry x="511" y="229" width="100" height="40" as="geometry" />
        </mxCell>
        <mxCell id="R1J7WSBFCIJwRQoOznQ5-57" value="equipment" style="whiteSpace=wrap;html=1;align=center;" vertex="1" parent="1">
          <mxGeometry x="598" y="608" width="100" height="38" as="geometry" />
        </mxCell>
        <mxCell id="R1J7WSBFCIJwRQoOznQ5-58" value="id" style="ellipse;whiteSpace=wrap;html=1;align=center;fontStyle=4" vertex="1" parent="1">
          <mxGeometry x="447" y="530" width="100" height="40" as="geometry" />
        </mxCell>
        <mxCell id="R1J7WSBFCIJwRQoOznQ5-64" value="attack_defence" style="ellipse;whiteSpace=wrap;html=1;align=center;" vertex="1" parent="1">
          <mxGeometry x="452" y="658" width="100" height="40" as="geometry" />
        </mxCell>
        <mxCell id="R1J7WSBFCIJwRQoOznQ5-65" value="&lt;span style=&quot;&quot;&gt;name&lt;/span&gt;" style="ellipse;whiteSpace=wrap;html=1;align=center;fontStyle=0;" vertex="1" parent="1">
          <mxGeometry x="440" y="599" width="100" height="40" as="geometry" />
        </mxCell>
        <mxCell id="R1J7WSBFCIJwRQoOznQ5-66" value="" style="endArrow=none;html=1;rounded=0;" edge="1" parent="1" source="R1J7WSBFCIJwRQoOznQ5-58" target="R1J7WSBFCIJwRQoOznQ5-57">
          <mxGeometry relative="1" as="geometry">
            <mxPoint x="508" y="685" as="sourcePoint" />
            <mxPoint x="725" y="565" as="targetPoint" />
          </mxGeometry>
        </mxCell>
        <mxCell id="R1J7WSBFCIJwRQoOznQ5-67" value="" style="endArrow=none;html=1;rounded=0;" edge="1" parent="1" source="R1J7WSBFCIJwRQoOznQ5-65" target="R1J7WSBFCIJwRQoOznQ5-57">
          <mxGeometry relative="1" as="geometry">
            <mxPoint x="508" y="685" as="sourcePoint" />
            <mxPoint x="700" y="565" as="targetPoint" />
          </mxGeometry>
        </mxCell>
        <mxCell id="R1J7WSBFCIJwRQoOznQ5-70" value="" style="endArrow=none;html=1;rounded=0;" edge="1" parent="1" source="R1J7WSBFCIJwRQoOznQ5-77" target="R1J7WSBFCIJwRQoOznQ5-57">
          <mxGeometry relative="1" as="geometry">
            <mxPoint x="541" y="645" as="sourcePoint" />
            <mxPoint x="611" y="831" as="targetPoint" />
          </mxGeometry>
        </mxCell>
        <mxCell id="R1J7WSBFCIJwRQoOznQ5-71" value="" style="endArrow=none;html=1;rounded=0;" edge="1" parent="1" source="R1J7WSBFCIJwRQoOznQ5-57" target="R1J7WSBFCIJwRQoOznQ5-64">
          <mxGeometry relative="1" as="geometry">
            <mxPoint x="645" y="647" as="sourcePoint" />
            <mxPoint x="667" y="750.5" as="targetPoint" />
          </mxGeometry>
        </mxCell>
        <mxCell id="R1J7WSBFCIJwRQoOznQ5-74" value="magic_defence" style="ellipse;whiteSpace=wrap;html=1;align=center;" vertex="1" parent="1">
          <mxGeometry x="547" y="719" width="100" height="40" as="geometry" />
        </mxCell>
        <mxCell id="R1J7WSBFCIJwRQoOznQ5-75" value="" style="endArrow=none;html=1;rounded=0;" edge="1" parent="1" source="R1J7WSBFCIJwRQoOznQ5-57" target="R1J7WSBFCIJwRQoOznQ5-74">
          <mxGeometry relative="1" as="geometry">
            <mxPoint x="917" y="684" as="sourcePoint" />
            <mxPoint x="728" y="761.5" as="targetPoint" />
          </mxGeometry>
        </mxCell>
        <mxCell id="R1J7WSBFCIJwRQoOznQ5-77" value="level" style="ellipse;whiteSpace=wrap;html=1;align=center;" vertex="1" parent="1">
          <mxGeometry x="679" y="719" width="95" height="40" as="geometry" />
        </mxCell>
        <mxCell id="R1J7WSBFCIJwRQoOznQ5-84" value="&lt;u&gt;id&lt;/u&gt;" style="ellipse;whiteSpace=wrap;html=1;align=center;" vertex="1" parent="1">
          <mxGeometry x="676.5" y="286" width="100" height="40" as="geometry" />
        </mxCell>
        <mxCell id="R1J7WSBFCIJwRQoOznQ5-85" value="element" style="ellipse;whiteSpace=wrap;html=1;align=center;" vertex="1" parent="1">
          <mxGeometry x="832" y="277" width="100" height="40" as="geometry" />
        </mxCell>
        <mxCell id="R1J7WSBFCIJwRQoOznQ5-86" value="cool down" style="ellipse;whiteSpace=wrap;html=1;align=center;" vertex="1" parent="1">
          <mxGeometry x="832" y="415" width="100" height="40" as="geometry" />
        </mxCell>
        <mxCell id="R1J7WSBFCIJwRQoOznQ5-87" value="health" style="ellipse;whiteSpace=wrap;html=1;align=center;" vertex="1" parent="1">
          <mxGeometry x="929" y="304" width="100" height="40" as="geometry" />
        </mxCell>
        <mxCell id="R1J7WSBFCIJwRQoOznQ5-89" value="power" style="ellipse;whiteSpace=wrap;html=1;align=center;" vertex="1" parent="1">
          <mxGeometry x="891" y="372" width="100" height="40" as="geometry" />
        </mxCell>
        <mxCell id="R1J7WSBFCIJwRQoOznQ5-90" value="&lt;span style=&quot;&quot;&gt;name&lt;/span&gt;" style="ellipse;whiteSpace=wrap;html=1;align=center;fontStyle=0;" vertex="1" parent="1">
          <mxGeometry x="783" y="229" width="100" height="40" as="geometry" />
        </mxCell>
        <mxCell id="R1J7WSBFCIJwRQoOznQ5-91" value="" style="endArrow=none;html=1;rounded=0;" edge="1" parent="1" source="R1J7WSBFCIJwRQoOznQ5-84" target="R1J7WSBFCIJwRQoOznQ5-109">
          <mxGeometry relative="1" as="geometry">
            <mxPoint x="963" y="459" as="sourcePoint" />
            <mxPoint x="1123" y="459" as="targetPoint" />
          </mxGeometry>
        </mxCell>
        <mxCell id="R1J7WSBFCIJwRQoOznQ5-92" value="" style="endArrow=none;html=1;rounded=0;" edge="1" parent="1" source="R1J7WSBFCIJwRQoOznQ5-90" target="R1J7WSBFCIJwRQoOznQ5-109">
          <mxGeometry relative="1" as="geometry">
            <mxPoint x="925" y="216" as="sourcePoint" />
            <mxPoint x="1123" y="459" as="targetPoint" />
          </mxGeometry>
        </mxCell>
        <mxCell id="R1J7WSBFCIJwRQoOznQ5-93" value="" style="endArrow=none;html=1;rounded=0;" edge="1" parent="1" source="R1J7WSBFCIJwRQoOznQ5-101" target="R1J7WSBFCIJwRQoOznQ5-109">
          <mxGeometry relative="1" as="geometry">
            <mxPoint x="1171" y="270" as="sourcePoint" />
            <mxPoint x="1129" y="349" as="targetPoint" />
          </mxGeometry>
        </mxCell>
        <mxCell id="R1J7WSBFCIJwRQoOznQ5-96" value="" style="endArrow=none;html=1;rounded=0;" edge="1" parent="1" source="R1J7WSBFCIJwRQoOznQ5-109" target="R1J7WSBFCIJwRQoOznQ5-89">
          <mxGeometry relative="1" as="geometry">
            <mxPoint x="1100" y="421" as="sourcePoint" />
            <mxPoint x="1122" y="524.5" as="targetPoint" />
          </mxGeometry>
        </mxCell>
        <mxCell id="R1J7WSBFCIJwRQoOznQ5-97" value="" style="endArrow=none;html=1;rounded=0;" edge="1" parent="1" source="R1J7WSBFCIJwRQoOznQ5-86" target="R1J7WSBFCIJwRQoOznQ5-109">
          <mxGeometry relative="1" as="geometry">
            <mxPoint x="1042" y="436" as="sourcePoint" />
            <mxPoint x="1057" y="408" as="targetPoint" />
          </mxGeometry>
        </mxCell>
        <mxCell id="R1J7WSBFCIJwRQoOznQ5-98" value="" style="endArrow=none;html=1;rounded=0;" edge="1" parent="1" source="R1J7WSBFCIJwRQoOznQ5-109" target="R1J7WSBFCIJwRQoOznQ5-85">
          <mxGeometry relative="1" as="geometry">
            <mxPoint x="1017" y="395" as="sourcePoint" />
            <mxPoint x="921" y="225" as="targetPoint" />
          </mxGeometry>
        </mxCell>
        <mxCell id="R1J7WSBFCIJwRQoOznQ5-101" value="&lt;span style=&quot;border-bottom-width: 1px; border-bottom-style: dotted; border-bottom-color: currentcolor;&quot;&gt;level&lt;/span&gt;" style="ellipse;whiteSpace=wrap;html=1;align=center;" vertex="1" parent="1">
          <mxGeometry x="723" y="439" width="100" height="40" as="geometry" />
        </mxCell>
        <mxCell id="R1J7WSBFCIJwRQoOznQ5-102" value="" style="endArrow=none;html=1;rounded=0;" edge="1" parent="1" source="R1J7WSBFCIJwRQoOznQ5-84" target="R1J7WSBFCIJwRQoOznQ5-33">
          <mxGeometry relative="1" as="geometry">
            <mxPoint x="695" y="322" as="sourcePoint" />
            <mxPoint x="574" y="471" as="targetPoint" />
          </mxGeometry>
        </mxCell>
        <mxCell id="R1J7WSBFCIJwRQoOznQ5-103" value="PK" style="resizable=0;html=1;whiteSpace=wrap;align=left;verticalAlign=bottom;" connectable="0" vertex="1" parent="R1J7WSBFCIJwRQoOznQ5-102">
          <mxGeometry x="-1" relative="1" as="geometry">
            <mxPoint x="-31" y="8" as="offset" />
          </mxGeometry>
        </mxCell>
        <mxCell id="R1J7WSBFCIJwRQoOznQ5-104" value="FK" style="resizable=0;html=1;whiteSpace=wrap;align=right;verticalAlign=bottom;" connectable="0" vertex="1" parent="R1J7WSBFCIJwRQoOznQ5-102">
          <mxGeometry x="1" relative="1" as="geometry">
            <mxPoint x="30" y="6" as="offset" />
          </mxGeometry>
        </mxCell>
        <mxCell id="R1J7WSBFCIJwRQoOznQ5-105" value="" style="endArrow=none;html=1;rounded=0;" edge="1" parent="1" source="R1J7WSBFCIJwRQoOznQ5-33" target="R1J7WSBFCIJwRQoOznQ5-17">
          <mxGeometry relative="1" as="geometry">
            <mxPoint x="317" y="475" as="sourcePoint" />
            <mxPoint x="481" y="464" as="targetPoint" />
          </mxGeometry>
        </mxCell>
        <mxCell id="R1J7WSBFCIJwRQoOznQ5-106" value="" style="endArrow=none;html=1;rounded=0;" edge="1" parent="1" source="R1J7WSBFCIJwRQoOznQ5-34" target="R1J7WSBFCIJwRQoOznQ5-58">
          <mxGeometry relative="1" as="geometry">
            <mxPoint x="718" y="486" as="sourcePoint" />
            <mxPoint x="348" y="673" as="targetPoint" />
          </mxGeometry>
        </mxCell>
        <mxCell id="R1J7WSBFCIJwRQoOznQ5-107" value="FK" style="resizable=0;html=1;whiteSpace=wrap;align=left;verticalAlign=bottom;" connectable="0" vertex="1" parent="R1J7WSBFCIJwRQoOznQ5-106">
          <mxGeometry x="-1" relative="1" as="geometry">
            <mxPoint x="15" y="-2" as="offset" />
          </mxGeometry>
        </mxCell>
        <mxCell id="R1J7WSBFCIJwRQoOznQ5-108" value="PK" style="resizable=0;html=1;whiteSpace=wrap;align=right;verticalAlign=bottom;" connectable="0" vertex="1" parent="R1J7WSBFCIJwRQoOznQ5-106">
          <mxGeometry x="1" relative="1" as="geometry" />
        </mxCell>
        <mxCell id="R1J7WSBFCIJwRQoOznQ5-110" value="" style="endArrow=none;html=1;rounded=0;" edge="1" parent="1" source="R1J7WSBFCIJwRQoOznQ5-87" target="R1J7WSBFCIJwRQoOznQ5-109">
          <mxGeometry relative="1" as="geometry">
            <mxPoint x="937" y="335" as="sourcePoint" />
            <mxPoint x="666" y="406" as="targetPoint" />
          </mxGeometry>
        </mxCell>
        <mxCell id="R1J7WSBFCIJwRQoOznQ5-109" value="skill" style="shape=ext;margin=3;double=1;whiteSpace=wrap;html=1;align=center;" vertex="1" parent="1">
          <mxGeometry x="711" y="353" width="100" height="40" as="geometry" />
        </mxCell>
        <mxCell id="R1J7WSBFCIJwRQoOznQ5-111" value="element" style="whiteSpace=wrap;html=1;align=center;" vertex="1" parent="1">
          <mxGeometry x="780" y="646" width="100" height="38" as="geometry" />
        </mxCell>
        <mxCell id="R1J7WSBFCIJwRQoOznQ5-113" value="advantage" style="ellipse;whiteSpace=wrap;html=1;align=center;" vertex="1" parent="1">
          <mxGeometry x="795" y="546" width="100" height="40" as="geometry" />
        </mxCell>
        <mxCell id="R1J7WSBFCIJwRQoOznQ5-114" value="&lt;span style=&quot;&quot;&gt;&lt;u&gt;name&lt;/u&gt;&lt;/span&gt;" style="ellipse;whiteSpace=wrap;html=1;align=center;fontStyle=0;" vertex="1" parent="1">
          <mxGeometry x="653" y="510" width="100" height="40" as="geometry" />
        </mxCell>
        <mxCell id="R1J7WSBFCIJwRQoOznQ5-116" value="" style="endArrow=none;html=1;rounded=0;" edge="1" parent="1" source="R1J7WSBFCIJwRQoOznQ5-114" target="R1J7WSBFCIJwRQoOznQ5-111">
          <mxGeometry relative="1" as="geometry">
            <mxPoint x="885" y="707" as="sourcePoint" />
            <mxPoint x="1077" y="587" as="targetPoint" />
          </mxGeometry>
        </mxCell>
        <mxCell id="R1J7WSBFCIJwRQoOznQ5-118" value="" style="endArrow=none;html=1;rounded=0;" edge="1" parent="1" source="R1J7WSBFCIJwRQoOznQ5-111" target="R1J7WSBFCIJwRQoOznQ5-113">
          <mxGeometry relative="1" as="geometry">
            <mxPoint x="1022" y="669" as="sourcePoint" />
            <mxPoint x="1044" y="772.5" as="targetPoint" />
          </mxGeometry>
        </mxCell>
        <mxCell id="R1J7WSBFCIJwRQoOznQ5-119" value="disadvantage" style="ellipse;whiteSpace=wrap;html=1;align=center;" vertex="1" parent="1">
          <mxGeometry x="929" y="487" width="100" height="40" as="geometry" />
        </mxCell>
        <mxCell id="R1J7WSBFCIJwRQoOznQ5-120" value="" style="endArrow=none;html=1;rounded=0;" edge="1" parent="1" source="R1J7WSBFCIJwRQoOznQ5-111" target="R1J7WSBFCIJwRQoOznQ5-119">
          <mxGeometry relative="1" as="geometry">
            <mxPoint x="1294" y="706" as="sourcePoint" />
            <mxPoint x="1105" y="783.5" as="targetPoint" />
          </mxGeometry>
        </mxCell>
        <mxCell id="R1J7WSBFCIJwRQoOznQ5-123" value="" style="endArrow=none;html=1;rounded=0;" edge="1" parent="1" source="R1J7WSBFCIJwRQoOznQ5-56" target="R1J7WSBFCIJwRQoOznQ5-114">
          <mxGeometry relative="1" as="geometry">
            <mxPoint x="945" y="378" as="sourcePoint" />
            <mxPoint x="575" y="565" as="targetPoint" />
          </mxGeometry>
        </mxCell>
        <mxCell id="R1J7WSBFCIJwRQoOznQ5-124" value="FK" style="resizable=0;html=1;whiteSpace=wrap;align=left;verticalAlign=bottom;" connectable="0" vertex="1" parent="R1J7WSBFCIJwRQoOznQ5-123">
          <mxGeometry x="-1" relative="1" as="geometry">
            <mxPoint x="14" y="17" as="offset" />
          </mxGeometry>
        </mxCell>
        <mxCell id="R1J7WSBFCIJwRQoOznQ5-125" value="PK" style="resizable=0;html=1;whiteSpace=wrap;align=right;verticalAlign=bottom;" connectable="0" vertex="1" parent="R1J7WSBFCIJwRQoOznQ5-123">
          <mxGeometry x="1" relative="1" as="geometry">
            <mxPoint x="14" y="-7" as="offset" />
          </mxGeometry>
        </mxCell>
        <mxCell id="R1J7WSBFCIJwRQoOznQ5-126" value="" style="endArrow=none;html=1;rounded=0;" edge="1" parent="1" source="R1J7WSBFCIJwRQoOznQ5-113" target="R1J7WSBFCIJwRQoOznQ5-114">
          <mxGeometry relative="1" as="geometry">
            <mxPoint x="740" y="529" as="sourcePoint" />
            <mxPoint x="862" y="770" as="targetPoint" />
          </mxGeometry>
        </mxCell>
        <mxCell id="R1J7WSBFCIJwRQoOznQ5-127" value="FK" style="resizable=0;html=1;whiteSpace=wrap;align=left;verticalAlign=bottom;" connectable="0" vertex="1" parent="R1J7WSBFCIJwRQoOznQ5-126">
          <mxGeometry x="-1" relative="1" as="geometry">
            <mxPoint x="-25" y="18" as="offset" />
          </mxGeometry>
        </mxCell>
        <mxCell id="R1J7WSBFCIJwRQoOznQ5-128" value="PK" style="resizable=0;html=1;whiteSpace=wrap;align=right;verticalAlign=bottom;" connectable="0" vertex="1" parent="R1J7WSBFCIJwRQoOznQ5-126">
          <mxGeometry x="1" relative="1" as="geometry">
            <mxPoint x="9" y="23" as="offset" />
          </mxGeometry>
        </mxCell>
        <mxCell id="R1J7WSBFCIJwRQoOznQ5-129" value="" style="endArrow=none;html=1;rounded=0;" edge="1" parent="1" source="R1J7WSBFCIJwRQoOznQ5-119" target="R1J7WSBFCIJwRQoOznQ5-114">
          <mxGeometry relative="1" as="geometry">
            <mxPoint x="895" y="504" as="sourcePoint" />
            <mxPoint x="764.999020986864" y="516.0309149177614" as="targetPoint" />
          </mxGeometry>
        </mxCell>
        <mxCell id="R1J7WSBFCIJwRQoOznQ5-130" value="FK" style="resizable=0;html=1;whiteSpace=wrap;align=left;verticalAlign=bottom;" connectable="0" vertex="1" parent="R1J7WSBFCIJwRQoOznQ5-129">
          <mxGeometry x="-1" relative="1" as="geometry">
            <mxPoint x="-21" y="22" as="offset" />
          </mxGeometry>
        </mxCell>
        <mxCell id="R1J7WSBFCIJwRQoOznQ5-131" value="PK" style="resizable=0;html=1;whiteSpace=wrap;align=right;verticalAlign=bottom;" connectable="0" vertex="1" parent="R1J7WSBFCIJwRQoOznQ5-129">
          <mxGeometry x="1" relative="1" as="geometry">
            <mxPoint x="14" y="-7" as="offset" />
          </mxGeometry>
        </mxCell>
      </root>
    </mxGraphModel>
  </diagram>
</mxfile>
